<?xml version="1.0" encoding="UTF-8" standalone="no"?>
<svg
   xmlns:dc="http://purl.org/dc/elements/1.1/"
   xmlns:cc="http://creativecommons.org/ns#"
   xmlns:rdf="http://www.w3.org/1999/02/22-rdf-syntax-ns#"
   xmlns:svg="http://www.w3.org/2000/svg"
   xmlns="http://www.w3.org/2000/svg"
   xmlns:sodipodi="http://sodipodi.sourceforge.net/DTD/sodipodi-0.dtd"
   xmlns:inkscape="http://www.inkscape.org/namespaces/inkscape"
   sodipodi:docname="loading.svg"
   inkscape:version="1.0 (4035a4fb49, 2020-05-01)"
   xml:space="preserve"
   viewBox="0 0 384 384"
   height="384"
   width="384"
   y="0px"
   x="0px"
   id="Layer_1"
   version="1.1"><title
   id="title4161">Circular dashes loading icon</title><metadata
   id="metadata33"><rdf:RDF><cc:Work
       rdf:about=""><dc:format>image/svg+xml</dc:format><dc:type
         rdf:resource="http://purl.org/dc/dcmitype/StillImage" /><dc:title>Circular dashes loading icon</dc:title></cc:Work></rdf:RDF></metadata><defs
   id="defs31" /><sodipodi:namedview
   inkscape:document-rotation="0"
   inkscape:current-layer="Layer_1"
   inkscape:window-maximized="1"
   inkscape:window-y="-9"
   inkscape:window-x="-9"
   inkscape:cy="189.83051"
   inkscape:cx="-138.84746"
   inkscape:zoom="0.4609375"
   fit-margin-bottom="0"
   fit-margin-right="0"
   fit-margin-left="0"
   fit-margin-top="0"
   showgrid="false"
   id="namedview29"
   inkscape:window-height="1001"
   inkscape:window-width="1920"
   inkscape:pageshadow="2"
   inkscape:pageopacity="0"
   guidetolerance="10"
   gridtolerance="10"
   objecttolerance="10"
   borderopacity="1"
   bordercolor="#666666"
   pagecolor="#ffffff" />
<g
   style="fill:#ffffff;fill-opacity:1"
   transform="translate(-64,-64)"
   id="g3">
	<path
   style="fill:#ffffff;fill-opacity:1"
   inkscape:connector-curvature="0"
   id="path5"
   d="m 432,240 -80,0 c -8.8,0 -16,7.2 -16,16 0,8.8 7.2,16 16,16 l 80,0 c 8.8,0 16,-7.2 16,-16 0,-8.8 -7.2,-16 -16,-16 z" />
	<path
   style="fill:#ffffff;fill-opacity:1"
   inkscape:connector-curvature="0"
   id="path7"
   d="m 176,256 c 0,-8.8 -7.2,-16 -16,-16 l -80,0 c -8.8,0 -16,7.2 -16,16 0,8.8 7.2,16 16,16 l 80,0 c 8.8,0 16,-7.2 16,-16 z" />
	<path
   style="fill:#ffffff;fill-opacity:1"
   inkscape:connector-curvature="0"
   id="path9"
   d="m 256,336 c -8.8,0 -16,7.2 -16,16 l 0,80 c 0,8.8 7.2,16 16,16 8.8,0 16,-7.2 16,-16 l 0,-80 c 0,-8.8 -7.2,-16 -16,-16 z" />
	<path
   style="fill:#ffffff;fill-opacity:1"
   inkscape:connector-curvature="0"
   id="path11"
   d="m 256,64 c -8.8,0 -16,7.2 -16,16 l 0,80 c 0,8.8 7.2,16 16,16 8.8,0 16,-7.2 16,-16 l 0,-80 c 0,-8.8 -7.2,-16 -16,-16 z" />
	<path
   style="fill:#ffffff;fill-opacity:1"
   inkscape:connector-curvature="0"
   id="path13"
   d="m 325.3,216 c 4.4,7.7 14.2,10.3 21.9,5.9 l 69.3,-40 c 7.7,-4.4 10.3,-14.2 5.9,-21.9 -4.4,-7.7 -14.2,-10.3 -21.9,-5.9 l -69.3,40 c -7.7,4.5 -10.3,14.2 -5.9,21.9 z" />
	<path
   style="fill:#ffffff;fill-opacity:1"
   inkscape:connector-curvature="0"
   id="path15"
   d="m 186.7,296 c -4.4,-7.7 -14.2,-10.3 -21.9,-5.9 l -69.3,40 c -7.7,4.4 -10.3,14.2 -5.9,21.9 4.4,7.7 14.2,10.3 21.9,5.9 l 69.3,-40 c 7.7,-4.5 10.3,-14.2 5.9,-21.9 z" />
	<path
   style="fill:#ffffff;fill-opacity:1"
   inkscape:connector-curvature="0"
   id="path17"
   d="m 317.9,331.1 c -4.4,-7.7 -14.2,-10.3 -21.9,-5.9 -7.7,4.4 -10.3,14.2 -5.9,21.9 l 40,69.3 c 4.4,7.7 14.2,10.3 21.9,5.9 7.7,-4.4 10.3,-14.2 5.9,-21.9 l -40,-69.3 z" />
	<path
   style="fill:#ffffff;fill-opacity:1"
   inkscape:connector-curvature="0"
   id="path19"
   d="m 181.9,95.6 c -4.4,-7.7 -14.2,-10.3 -21.9,-5.9 -7.7,4.4 -10.3,14.2 -5.9,21.9 l 40,69.3 c 4.4,7.7 14.2,10.3 21.9,5.9 7.7,-4.4 10.3,-14.2 5.9,-21.9 l -40,-69.3 z" />
	<path
   style="fill:#ffffff;fill-opacity:1"
   inkscape:connector-curvature="0"
   id="path21"
   d="m 296,186.7 c 7.7,4.4 17.4,1.8 21.9,-5.9 l 40,-69.3 c 4.4,-7.7 1.8,-17.4 -5.9,-21.9 -7.7,-4.4 -17.4,-1.8 -21.9,5.9 l -40,69.3 c -4.4,7.7 -1.8,17.5 5.9,21.9 z" />
	<path
   style="fill:#ffffff;fill-opacity:1"
   inkscape:connector-curvature="0"
   id="path23"
   d="m 216,325.3 c -7.7,-4.4 -17.4,-1.8 -21.9,5.9 l -40,69.3 c -4.4,7.7 -1.8,17.4 5.9,21.9 7.7,4.4 17.4,1.8 21.9,-5.9 l 40,-69.3 c 4.4,-7.7 1.8,-17.5 -5.9,-21.9 z" />
	<path
   style="fill:#ffffff;fill-opacity:1"
   inkscape:connector-curvature="0"
   id="path25"
   d="m 416.4,330.1 -69.3,-40 c -7.7,-4.4 -17.4,-1.8 -21.9,5.9 -4.4,7.7 -1.8,17.4 5.9,21.9 l 69.3,40 c 7.7,4.4 17.4,1.8 21.9,-5.9 4.4,-7.7 1.8,-17.4 -5.9,-21.9 z" />
	<path
   style="fill:#ffffff;fill-opacity:1"
   inkscape:connector-curvature="0"
   id="path27"
   d="m 95.6,181.9 69.3,40 c 7.7,4.4 17.4,1.8 21.9,-5.9 4.5,-7.7 1.8,-17.4 -5.9,-21.9 l -69.3,-40 c -7.7,-4.4 -17.4,-1.8 -21.9,5.9 -4.4,7.7 -1.8,17.4 5.9,21.9 z" />
</g>
</svg>
